<mxfile host="app.diagrams.net" modified="2023-03-21T19:11:17.491Z" agent="5.0 (Windows NT 10.0; Win64; x64) AppleWebKit/537.36 (KHTML, like Gecko) Chrome/111.0.0.0 Safari/537.36" etag="ldn_E7i_LFbgKgZakDLx" version="21.0.8" type="github">
  <diagram name="Página-1" id="DzquaWKCrsMKCIiNF2ie">
    <mxGraphModel dx="953" dy="461" grid="1" gridSize="10" guides="1" tooltips="1" connect="1" arrows="1" fold="1" page="1" pageScale="1" pageWidth="827" pageHeight="1169" math="0" shadow="0">
      <root>
        <mxCell id="0" />
        <mxCell id="1" parent="0" />
        <mxCell id="oHHWBNvgZRoqoSZnXPys-14" style="edgeStyle=orthogonalEdgeStyle;rounded=0;orthogonalLoop=1;jettySize=auto;html=1;" parent="1" source="oHHWBNvgZRoqoSZnXPys-5" edge="1">
          <mxGeometry relative="1" as="geometry">
            <mxPoint x="399.5" y="160" as="targetPoint" />
          </mxGeometry>
        </mxCell>
        <mxCell id="oHHWBNvgZRoqoSZnXPys-5" value="Início" style="strokeWidth=2;html=1;shape=mxgraph.flowchart.terminator;whiteSpace=wrap;" parent="1" vertex="1">
          <mxGeometry x="319" y="60" width="161" height="60" as="geometry" />
        </mxCell>
        <mxCell id="oHHWBNvgZRoqoSZnXPys-7" value="FIM" style="strokeWidth=2;html=1;shape=mxgraph.flowchart.terminator;whiteSpace=wrap;" parent="1" vertex="1">
          <mxGeometry x="320" y="760" width="160" height="60" as="geometry" />
        </mxCell>
        <mxCell id="oHHWBNvgZRoqoSZnXPys-25" style="edgeStyle=orthogonalEdgeStyle;rounded=0;orthogonalLoop=1;jettySize=auto;html=1;entryX=0;entryY=0;entryDx=80;entryDy=0;entryPerimeter=0;" parent="1" source="oHHWBNvgZRoqoSZnXPys-11" target="oHHWBNvgZRoqoSZnXPys-22" edge="1">
          <mxGeometry relative="1" as="geometry" />
        </mxCell>
        <mxCell id="oHHWBNvgZRoqoSZnXPys-11" value="RESTO=SALÁRIO:R$1200-C1:R$(200*2)/100+C2:R$(120*2)/100" style="rounded=1;whiteSpace=wrap;html=1;absoluteArcSize=1;arcSize=14;strokeWidth=2;" parent="1" vertex="1">
          <mxGeometry x="200" y="520" width="400" height="80" as="geometry" />
        </mxCell>
        <mxCell id="oHHWBNvgZRoqoSZnXPys-16" style="edgeStyle=orthogonalEdgeStyle;rounded=0;orthogonalLoop=1;jettySize=auto;html=1;entryX=0.5;entryY=0;entryDx=0;entryDy=0;" parent="1" source="oHHWBNvgZRoqoSZnXPys-12" target="oHHWBNvgZRoqoSZnXPys-15" edge="1">
          <mxGeometry relative="1" as="geometry" />
        </mxCell>
        <mxCell id="oHHWBNvgZRoqoSZnXPys-12" value="C1:R$(200*2)/100" style="shape=parallelogram;html=1;strokeWidth=2;perimeter=parallelogramPerimeter;whiteSpace=wrap;rounded=1;arcSize=12;size=0.23;" parent="1" vertex="1">
          <mxGeometry x="320" y="160" width="160" height="80" as="geometry" />
        </mxCell>
        <mxCell id="oHHWBNvgZRoqoSZnXPys-18" style="edgeStyle=orthogonalEdgeStyle;rounded=0;orthogonalLoop=1;jettySize=auto;html=1;" parent="1" source="oHHWBNvgZRoqoSZnXPys-15" edge="1">
          <mxGeometry relative="1" as="geometry">
            <mxPoint x="400" y="400" as="targetPoint" />
          </mxGeometry>
        </mxCell>
        <mxCell id="oHHWBNvgZRoqoSZnXPys-15" value="C2:R$(120*2)/100" style="shape=parallelogram;html=1;strokeWidth=2;perimeter=parallelogramPerimeter;whiteSpace=wrap;rounded=1;arcSize=12;size=0.23;" parent="1" vertex="1">
          <mxGeometry x="320" y="280" width="160" height="80" as="geometry" />
        </mxCell>
        <mxCell id="oHHWBNvgZRoqoSZnXPys-20" style="edgeStyle=orthogonalEdgeStyle;rounded=0;orthogonalLoop=1;jettySize=auto;html=1;" parent="1" source="oHHWBNvgZRoqoSZnXPys-19" edge="1">
          <mxGeometry relative="1" as="geometry">
            <mxPoint x="400" y="520" as="targetPoint" />
          </mxGeometry>
        </mxCell>
        <mxCell id="oHHWBNvgZRoqoSZnXPys-19" value="SALÁRIO: R$1200" style="shape=parallelogram;html=1;strokeWidth=2;perimeter=parallelogramPerimeter;whiteSpace=wrap;rounded=1;arcSize=12;size=0.23;" parent="1" vertex="1">
          <mxGeometry x="320" y="400" width="160" height="80" as="geometry" />
        </mxCell>
        <mxCell id="oHHWBNvgZRoqoSZnXPys-27" style="edgeStyle=orthogonalEdgeStyle;rounded=0;orthogonalLoop=1;jettySize=auto;html=1;entryX=0.5;entryY=0;entryDx=0;entryDy=0;entryPerimeter=0;" parent="1" source="oHHWBNvgZRoqoSZnXPys-22" target="oHHWBNvgZRoqoSZnXPys-7" edge="1">
          <mxGeometry relative="1" as="geometry" />
        </mxCell>
        <mxCell id="oHHWBNvgZRoqoSZnXPys-22" value="RESTO:875,6" style="shape=display;whiteSpace=wrap;html=1;" parent="1" vertex="1">
          <mxGeometry x="320" y="640" width="160" height="80" as="geometry" />
        </mxCell>
      </root>
    </mxGraphModel>
  </diagram>
</mxfile>
